<svg width="18" height="18" viewBox="0 0 18 18" fill="none" xmlns="http://www.w3.org/2000/svg">
<g clip-path="url(#clip0_412_880)">
<path d="M17.3203 7.43492L9.9783 7.43457C9.65409 7.43457 9.3913 7.69733 9.3913 8.02154V10.367C9.3913 10.6911 9.65409 10.954 9.97826 10.954H14.1129C13.6601 12.1289 12.8151 13.1129 11.737 13.7381L13.5 16.79C16.328 15.1544 18 12.2847 18 9.07215C18 8.61473 17.9663 8.28774 17.8988 7.91955C17.8476 7.63981 17.6047 7.43492 17.3203 7.43492Z" fill="#167EE6"/>
<path d="M9.00002 14.4778C6.97663 14.4778 5.21024 13.3723 4.26155 11.7363L1.20978 13.4953C2.7628 16.187 5.67212 17.9995 9.00002 17.9995C10.6326 17.9995 12.173 17.56 13.5 16.7939V16.7898L11.737 13.7378C10.9306 14.2056 9.99743 14.4778 9.00002 14.4778Z" fill="#12B347"/>
<path d="M13.5 16.7944V16.7902L11.737 13.7383C10.9306 14.206 9.99749 14.4782 9 14.4782V18C10.6326 18 12.1731 17.5604 13.5 16.7944Z" fill="#0F993E"/>
<path d="M3.52174 8.99972C3.52174 8.00238 3.79392 7.06929 4.26154 6.26291L1.20976 4.50391C0.439523 5.82673 0 7.36299 0 8.99972C0 10.6365 0.439523 12.1727 1.20976 13.4955L4.26154 11.7365C3.79392 10.9302 3.52174 9.99707 3.52174 8.99972Z" fill="#FFD500"/>
<path d="M9.00002 3.52174C10.3195 3.52174 11.5314 3.99058 12.4781 4.77046C12.7116 4.96283 13.0511 4.94894 13.265 4.73502L14.9268 3.07318C15.1696 2.83046 15.1523 2.43316 14.893 2.20823C13.3069 0.832254 11.2432 0 9.00002 0C5.67213 0 2.76281 1.81255 1.20978 4.50418L4.26155 6.26319C5.21024 4.62726 6.97663 3.52174 9.00002 3.52174Z" fill="#FF4B26"/>
<path d="M12.4781 4.77046C12.7116 4.96283 13.0511 4.94895 13.265 4.73502L14.9268 3.07318C15.1695 2.83046 15.1522 2.43316 14.893 2.20823C13.3069 0.832219 11.2432 0 9 0V3.52174C10.3194 3.52174 11.5314 3.99059 12.4781 4.77046Z" fill="#D93F21"/>
</g>
<defs>
<clipPath id="clip0_412_880">
<rect width="18" height="18" fill="white"/>
</clipPath>
</defs>
</svg>
