<svg width="34" height="34" viewBox="0 0 34 34" fill="none" xmlns="http://www.w3.org/2000/svg">
<path fill-rule="evenodd" clip-rule="evenodd" d="M26.3739 13.345C29.7088 13.991 32.229 16.9291 32.229 20.451C32.229 24.446 28.9863 27.6887 24.9913 27.6887C20.9963 27.6887 17.7535 24.446 17.7535 20.451C17.7535 15.1271 19.547 11.8206 21.6522 9.75372C24.8751 6.58889 28.9112 6.31405 28.9112 6.31405C29.322 6.2843 29.7116 6.49538 29.9128 6.8538C30.1153 7.2108 30.0913 7.65422 29.8533 7.98855C29.8533 7.98855 27.9351 10.6887 26.7394 12.6862C26.6148 12.8959 26.4887 13.1268 26.3739 13.345Z" fill="white"/>
<path fill-rule="evenodd" clip-rule="evenodd" d="M10.391 13.345C13.7258 13.991 16.2461 16.9291 16.2461 20.451C16.2461 24.446 13.0033 27.6887 9.00834 27.6887C5.01334 27.6887 1.77059 24.446 1.77059 20.451C1.77059 15.1271 3.56409 11.8206 5.66926 9.75372C8.89218 6.58889 12.9283 6.31405 12.9283 6.31405C13.3391 6.2843 13.7287 6.49538 13.9298 6.8538C14.131 7.2108 14.1083 7.65422 13.8703 7.98855C13.8703 7.98855 11.9522 10.6887 10.7565 12.6862C10.6318 12.8959 10.5058 13.1268 10.391 13.345Z" fill="white"/>
</svg>
