<svg width="17" height="8" viewBox="0 0 17 8" fill="none" xmlns="http://www.w3.org/2000/svg">
	<path d="M15.2934 2.39293C12.3951 -0.627389 4.70484 -0.628055 1.80654 2.39293C1.15171 3.07519 0.790953 3.9873 0.801909 4.93289L0.854206 5.69087C0.835079 6.68071 1.61996 7.49964 2.60971 7.52258C2.63812 7.52258 4.23867 7.30564 4.23867 7.30564C5.1927 7.259 5.94366 6.4743 5.94835 5.51915L6.05037 4.30663C6.84337 3.98001 7.69205 3.80989 8.54966 3.80559C9.40787 3.818 10.2563 3.99009 11.0515 4.31307L11.1523 5.51915C11.157 6.47433 11.9079 7.259 12.8619 7.30564C12.8619 7.30564 14.4625 7.52258 14.4909 7.52258C15.4651 7.50672 16.2466 6.71236 16.2464 5.73802L16.2974 4.88771C16.2986 3.95789 15.9384 3.06399 15.2928 2.39487L15.2934 2.39293Z" fill="white"/>
</svg>