<svg width="45" height="45" viewBox="0 0 45 45" fill="none" xmlns="http://www.w3.org/2000/svg">
<path d="M9.99104 5.37213H6.41705C5.88312 5.37213 5.45026 5.80499 5.45026 6.33893V13.5017V17.0831C5.45026 17.6171 5.88312 18.0499 6.41705 18.0499C6.95099 18.0499 7.38385 17.6171 7.38385 17.0831V14.4685H9.99104C12.4949 14.4685 14.5318 12.4282 14.5318 9.9203C14.5318 7.41242 12.4949 5.37213 9.99104 5.37213ZM9.99104 12.5349H7.38385V7.30573H9.99104C11.4287 7.30573 12.5982 8.47863 12.5982 9.9203C12.5982 11.362 11.4287 12.5349 9.99104 12.5349Z" fill="#00BDE0"/>
<path d="M39.0617 5.49906C38.598 5.2346 38.0075 5.39614 37.7429 5.85994L35.0088 10.6546L32.2748 5.85994C32.0102 5.39614 31.4199 5.2346 30.956 5.49906C30.4922 5.76361 30.3307 6.35397 30.5951 6.81786L34.0421 12.8627V17.0831C34.0421 17.6171 34.475 18.0499 35.0089 18.0499C35.5428 18.0499 35.9757 17.6171 35.9757 17.0831V12.8627L39.4228 6.81786C39.6872 6.35406 39.5256 5.76361 39.0617 5.49906Z" fill="#00BDE0"/>
<path d="M22.5 5.37213C19.9962 5.37213 17.9592 7.41242 17.9592 9.9203V17.1727C17.9592 17.7066 18.3921 18.1395 18.926 18.1395C19.46 18.1395 19.8928 17.7066 19.8928 17.1727V13.5732H25.1072V17.0832C25.1072 17.6171 25.5401 18.05 26.074 18.05C26.6079 18.05 27.0408 17.6171 27.0408 17.0832V9.92038C27.0408 7.41242 25.0037 5.37213 22.5 5.37213ZM19.8928 11.6396V9.9203C19.8928 8.47863 21.0624 7.30573 22.5 7.30573C23.9375 7.30573 25.1072 8.47863 25.1072 9.9203V11.6396H19.8928Z" fill="#00BDE0"/>
<path d="M38.6722 0H6.32777C2.8386 0 0 2.84361 0 6.33894V17.0831C0 20.5784 2.8386 23.422 6.32777 23.422H15.2787V31.3488L13.5873 29.6539C12.8654 28.9306 11.9056 28.5323 10.8845 28.5323C9.86335 28.5323 8.9035 28.9306 8.18174 29.654C6.83024 31.0083 6.6898 33.1744 7.85522 34.6924L13.3326 41.8268C14.8582 43.8137 17.2628 45 19.7649 45H30.5415C35.0159 45 38.6561 41.3531 38.6561 36.8704V31.4983V29.7076C38.6561 27.6934 37.02 26.0547 35.0089 26.0547C33.95 26.0547 32.9954 26.5094 32.3285 27.2336C31.6615 26.5094 30.707 26.0547 29.648 26.0547C28.589 26.0547 27.6344 26.5094 26.9675 27.2336C26.3006 26.5094 25.3459 26.0547 24.287 26.0547C23.6679 26.0547 23.0846 26.2105 22.5733 26.4843V23.422H38.6722C42.1614 23.422 45 20.5784 45 17.0831V6.33894C45 2.84361 42.1614 0 38.6722 0ZM24.287 27.9883C25.2319 27.9883 26.0007 28.7595 26.0007 29.7076V31.4983C26.0007 32.0323 26.4335 32.4651 26.9675 32.4651C27.5014 32.4651 27.9343 32.0323 27.9343 31.4983V29.7076C27.9343 28.7596 28.7031 27.9883 29.648 27.9883C30.5929 27.9883 31.3617 28.7595 31.3617 29.7076V31.4983C31.3617 32.0323 31.7945 32.4651 32.3285 32.4651C32.8624 32.4651 33.2953 32.0323 33.2953 31.4983V29.7076C33.2953 28.7596 34.0639 27.9883 35.0089 27.9883C35.9538 27.9883 36.7225 28.7595 36.7225 29.7076V31.4983V36.8704C36.7225 40.2869 33.9497 43.0664 30.5415 43.0664H19.7649C17.8596 43.0664 16.0284 42.1628 14.8664 40.6493L9.38909 33.5149C8.81191 32.763 8.88135 31.6904 9.55055 31.0197C9.90703 30.6626 10.3808 30.4658 10.8846 30.4658C11.3885 30.4658 11.8622 30.6625 12.2187 31.0198L15.5613 34.3692C16.1316 34.9798 17.24 34.521 17.2124 33.6862V20.7541C17.2124 19.8061 17.9812 19.0348 18.926 19.0348C19.8709 19.0348 20.6397 19.806 20.6397 20.7541V29.7076V31.4983C20.6397 32.0323 21.0726 32.4651 21.6065 32.4651C22.1404 32.4651 22.5733 32.0323 22.5733 31.4983V29.7076C22.5733 28.7596 23.3421 27.9883 24.287 27.9883ZM43.0664 17.0831C43.0664 19.5122 41.0952 21.4884 38.6722 21.4884H22.5733V20.7541C22.5733 18.7399 20.9371 17.1012 18.926 17.1012C16.9149 17.1012 15.2788 18.7399 15.2788 20.7541V21.4884H6.32777C3.9048 21.4884 1.93359 19.5122 1.93359 17.0831V6.33894C1.93359 3.90981 3.9048 1.93359 6.32777 1.93359H38.6722C41.0952 1.93359 43.0664 3.90981 43.0664 6.33894V17.0831Z" fill="#031B4E"/>
</svg>
