<svg width="45" height="37" viewBox="0 0 45 37" fill="none" xmlns="http://www.w3.org/2000/svg">
<path d="M44.0332 3.72593H7.97229L7.15676 0.995781C7.03441 0.586299 6.65771 0.305664 6.23039 0.305664H0.966797C0.432861 0.305664 0 0.738525 0 1.27246C0 1.8064 0.432861 2.23926 0.966797 2.23926H5.51013L12.2832 24.9789V28.3813C12.2832 29.7733 13.4157 30.9058 14.8078 30.9058H17.1943C16.8658 31.4735 16.6766 32.1316 16.6766 32.8333C16.6766 34.9623 18.4087 36.6943 20.5377 36.6943C22.6666 36.6943 24.3987 34.9623 24.3987 32.8333C24.3987 32.1316 24.2096 31.4735 23.881 30.9058H31.8998C31.5713 31.4735 31.3821 32.1316 31.3821 32.8333C31.3821 34.9623 33.1142 36.6943 35.2432 36.6943C37.3722 36.6943 39.1042 34.9623 39.1042 32.8333C39.1042 32.1316 38.9151 31.4735 38.5865 30.9058H39.6937C40.2276 30.9058 40.6605 30.473 40.6605 29.939C40.6605 29.4051 40.2276 28.9722 39.6937 28.9722H14.8078C14.4819 28.9722 14.2167 28.7071 14.2167 28.3813V25.7443H34.8778C36.4641 25.7443 37.8388 24.669 38.2212 23.1295L42.559 5.65952H44.0332C44.5671 5.65952 45 5.22666 45 4.69273C45 4.15879 44.5671 3.72593 44.0332 3.72593ZM22.4652 32.8333C22.4652 33.8961 21.6005 34.7607 20.5378 34.7607C19.475 34.7607 18.6103 33.8961 18.6103 32.8333C18.6103 31.7704 19.475 30.9058 20.5378 30.9058C21.6005 30.9058 22.4652 31.7705 22.4652 32.8333ZM37.1707 32.8333C37.1707 33.8961 36.306 34.7607 35.2433 34.7607C34.1805 34.7607 33.3158 33.8961 33.3158 32.8333C33.3158 31.7704 34.1805 30.9058 35.2433 30.9058C36.306 30.9058 37.1707 31.7705 37.1707 32.8333ZM36.3446 22.6635C36.1769 23.339 35.5737 23.8107 34.8779 23.8107H13.9722L8.54991 5.65952H40.5667L36.3446 22.6635Z" fill="#031B4E"/>
<path d="M25.4886 10.335C24.9547 10.335 24.5219 10.7678 24.5219 11.3018V18.1686C24.5219 18.7025 24.9547 19.1354 25.4886 19.1354C26.0226 19.1354 26.4554 18.7025 26.4554 18.1686V11.3018C26.4554 10.7677 26.0226 10.335 25.4886 10.335Z" fill="#00BDE0"/>
<path d="M18.2224 10.335C17.6884 10.335 17.2556 10.7678 17.2556 11.3018V18.1686C17.2556 18.7025 17.6884 19.1354 18.2224 19.1354C18.7563 19.1354 19.1891 18.7025 19.1891 18.1686V11.3018C19.1891 10.7677 18.7563 10.335 18.2224 10.335Z" fill="#00BDE0"/>
<path d="M32.755 10.335C32.2211 10.335 31.7882 10.7678 31.7882 11.3018V18.1686C31.7882 18.7025 32.2211 19.1354 32.755 19.1354C33.2889 19.1354 33.7218 18.7025 33.7218 18.1686V11.3018C33.7218 10.7677 33.2889 10.335 32.755 10.335Z" fill="#00BDE0"/>
</svg>
