<svg width="37" height="45" viewBox="0 0 37 45" fill="none" xmlns="http://www.w3.org/2000/svg">
<path d="M24.0191 38.7599H21.1132C20.5792 38.7599 20.1464 38.3271 20.1464 37.7932C20.1464 37.2592 20.5792 36.8264 21.1132 36.8264H24.0191C24.553 36.8264 24.9859 37.2592 24.9859 37.7932C24.9859 38.3271 24.553 38.7599 24.0191 38.7599Z" fill="#00BDE0"/>
<path d="M20.0658 27.3535C18.6201 27.3537 17.054 26.7435 15.4414 25.5249C14.6352 24.9157 14.1381 23.9882 14.0776 22.9803C14.0171 21.9712 14.4004 20.9896 15.1292 20.2873L16.1711 19.2833C17.5437 17.9604 19.7393 17.9985 21.0651 19.3683L21.2737 19.5836C21.5049 19.4736 21.9692 19.188 22.7231 18.4571C23.4514 17.7108 23.7385 17.2496 23.8503 17.0183L23.6371 16.8133C22.9706 16.1723 22.5948 15.3107 22.5787 14.3873C22.5627 13.464 22.9083 12.59 23.552 11.9262L24.5591 10.8878C25.2631 10.1618 26.2466 9.77994 27.2573 9.84085C28.2661 9.90132 29.1946 10.3964 29.805 11.199C32.179 14.3208 32.2534 17.2691 30.0142 19.5011L23.7616 25.7337C22.6777 26.8139 21.4248 27.3534 20.0658 27.3535ZM18.5753 20.248C18.1925 20.248 17.8093 20.39 17.5127 20.6757L16.4709 21.6796C16.1499 21.989 15.9811 22.4208 16.0077 22.8645C16.0342 23.307 16.2527 23.7144 16.607 23.9822C18.9367 25.7426 20.8846 25.8711 22.3964 24.3642L28.649 18.1316C30.1582 16.6272 30.0294 14.6885 28.2658 12.3695C27.9968 12.0159 27.587 11.7976 27.1414 11.7709C26.6944 11.744 26.2585 11.9128 25.9471 12.2339L24.9399 13.2724C24.6569 13.5642 24.505 13.9482 24.512 14.3536C24.5191 14.7591 24.6843 15.1378 24.9775 15.4197L25.4549 15.8788C25.705 16.1193 25.846 16.4593 25.8518 16.836C25.8639 17.6222 25.2899 18.5976 24.0969 19.8178C24.0911 19.8237 24.0852 19.8296 24.0792 19.8354C22.8559 21.0238 21.8804 21.5951 21.0922 21.5834C20.7164 21.5776 20.3769 21.4375 20.1363 21.1889L19.6759 20.7133C19.3762 20.4035 18.9759 20.248 18.5753 20.248Z" fill="#00BDE0"/>
<path d="M31.2974 0H14.4088C11.5704 0 9.26129 2.30309 9.26129 5.13404V18.9715L5.04772 21.445C2.27653 23.0468 0.55502 26.0259 0.55502 29.2199V38.5607C0.55502 40.5468 0.901309 42.4997 1.58431 44.3655C1.72379 44.7466 2.08643 45 2.49222 45H11.0842C11.6172 45 12.0496 44.5686 12.051 44.0357L12.0556 42.2384C12.778 42.6104 13.5772 42.8041 14.4088 42.8041H31.2974C34.1357 42.8041 36.4449 40.501 36.4449 37.67V5.13404C36.445 2.30309 34.1358 0 31.2974 0ZM18.416 1.93359H26.7162V2.61396C26.7162 3.6399 25.8818 4.47451 24.8562 4.47451H20.2758C19.2503 4.47451 18.4159 3.6399 18.4159 2.61396V1.93359H18.416ZM11.1949 5.13404C11.1949 3.36929 12.6366 1.93359 14.4088 1.93359H16.4824V2.61396C16.4824 4.7061 18.1841 6.40811 20.2759 6.40811H24.8563C26.9481 6.40811 28.6499 4.7061 28.6499 2.61396V1.93359H31.2975C33.0697 1.93359 34.5114 3.36929 34.5114 5.13404V32.9479H20.871C20.898 32.7454 20.9074 32.539 20.8981 32.3308C20.8516 31.285 20.3426 30.3259 19.5017 29.6997C18.2009 28.731 16.4238 28.7812 15.1849 29.8176L12.3998 32.1166C12.074 32.3857 11.7421 32.2748 11.6145 32.2146C11.4883 32.1551 11.1947 31.9719 11.1947 31.5556V5.13404H11.1949ZM10.1239 41.5005L10.1199 43.0664H3.18365C2.72223 41.6079 2.48861 40.0954 2.48861 38.5607V29.2199C2.48861 26.7141 3.83993 24.3765 6.02094 23.1158L9.2612 21.2136V31.5557C9.2612 32.5967 9.84717 33.5195 10.7903 33.9638C11.7363 34.4098 12.8248 34.2732 13.6308 33.6078L16.4206 31.3048C16.9748 30.8411 17.767 30.8188 18.3469 31.2507C18.7201 31.5285 18.9459 31.9535 18.9664 32.4168C18.987 32.8797 18.8 33.3227 18.4534 33.6321L10.4468 40.7818C10.242 40.9647 10.1246 41.226 10.1239 41.5005ZM31.2974 40.8706H14.4088C14.0683 40.8706 13.7366 40.8188 13.4215 40.7178L19.7414 35.0745C19.8108 35.0126 19.8773 34.9481 19.941 34.8816H34.5114V37.6702C34.5114 39.4349 33.0696 40.8706 31.2974 40.8706Z" fill="#031B4E"/>
</svg>
