<svg width="17" height="16" viewBox="0 0 17 16" fill="none" xmlns="http://www.w3.org/2000/svg">
	<path d="M13.0632 3.80244L12.6475 4.08022L12.6475 4.08023L13.0632 3.80244ZM13.0632 10.5459L12.6475 10.2681L12.6475 10.2681L13.0632 10.5459ZM12.3507 11.2585L12.0729 10.8427L12.0729 10.8427L12.3507 11.2585ZM9.62461 11.6928L9.62243 11.1928C9.34714 11.194 9.12461 11.4175 9.12461 11.6928H9.62461ZM9.62461 11.6937L10.0718 11.9173C10.1065 11.8479 10.1246 11.7713 10.1246 11.6937H9.62461ZM7.43889 12.4874L7.8861 12.2638L7.8861 12.2638L7.43889 12.4874ZM7.04203 11.6937H6.54203C6.54203 11.7713 6.5601 11.8479 6.59481 11.9173L7.04203 11.6937ZM7.04203 11.6928H7.54203C7.54203 11.4175 7.3195 11.194 7.04421 11.1928L7.04203 11.6928ZM4.31593 11.2585L4.03814 11.6742L4.03814 11.6742L4.31593 11.2585ZM3.6034 10.5459L3.18766 10.8237L3.18766 10.8237L3.6034 10.5459ZM3.6034 3.80244L3.18766 3.52465L3.6034 3.80244ZM4.31593 3.08991L4.03814 2.67417L4.31593 3.08991ZM12.3507 3.08991L12.0729 3.50564L12.0729 3.50564L12.3507 3.08991ZM13.9985 7.17418C13.9985 6.2778 13.9991 5.56788 13.9415 5.00189C13.8831 4.42754 13.7606 3.9462 13.479 3.52465L12.6475 4.08023C12.8011 4.31007 12.8963 4.60781 12.9466 5.1031C12.9979 5.60673 12.9985 6.25699 12.9985 7.17418H13.9985ZM13.479 10.8237C13.7606 10.4022 13.8831 9.92083 13.9415 9.34648C13.9991 8.78048 13.9985 8.07056 13.9985 7.17418H12.9985C12.9985 8.09137 12.9979 8.74163 12.9466 9.24527C12.8963 9.74055 12.8011 10.0383 12.6475 10.2681L13.479 10.8237ZM12.6285 11.6742C12.9651 11.4493 13.2541 11.1603 13.479 10.8237L12.6475 10.2681C12.4956 10.4955 12.3003 10.6908 12.0729 10.8427L12.6285 11.6742ZM9.62679 12.1928C10.321 12.1898 10.8915 12.1767 11.3651 12.1112C11.8468 12.0447 12.2603 11.9202 12.6285 11.6742L12.0729 10.8427C11.8721 10.9769 11.6191 11.0666 11.2282 11.1207C10.8293 11.1758 10.3214 11.1898 9.62243 11.1928L9.62679 12.1928ZM10.1246 11.6937V11.6928H9.12461V11.6937H10.1246ZM9.67496 12.711L10.0718 11.9173L9.17739 11.4701L8.78053 12.2638L9.67496 12.711ZM6.99168 12.711C7.54446 13.8166 9.12217 13.8166 9.67496 12.711L8.78053 12.2638C8.59627 12.6323 8.07037 12.6323 7.8861 12.2638L6.99168 12.711ZM6.59481 11.9173L6.99168 12.711L7.8861 12.2638L7.48924 11.4701L6.59481 11.9173ZM6.54203 11.6928V11.6937H7.54203V11.6928H6.54203ZM4.03814 11.6742C4.40632 11.9202 4.81985 12.0447 5.30149 12.1112C5.77509 12.1767 6.34567 12.1898 7.03985 12.1928L7.04421 11.1928C6.34527 11.1898 5.83733 11.1758 5.43842 11.1207C5.04754 11.0666 4.79458 10.9769 4.59371 10.8427L4.03814 11.6742ZM3.18766 10.8237C3.41256 11.1603 3.70156 11.4493 4.03814 11.6742L4.59371 10.8427C4.36632 10.6908 4.17107 10.4955 4.01913 10.2681L3.18766 10.8237ZM2.66815 7.17418C2.66815 8.07056 2.66755 8.78048 2.72512 9.34648C2.78355 9.92083 2.906 10.4022 3.18766 10.8237L4.01913 10.2681C3.86555 10.0383 3.77037 9.74055 3.71999 9.24527C3.66876 8.74163 3.66815 8.09137 3.66815 7.17418H2.66815ZM3.18766 3.52465C2.906 3.9462 2.78355 4.42754 2.72512 5.00189C2.66755 5.56788 2.66815 6.2778 2.66815 7.17418H3.66815C3.66815 6.25699 3.66876 5.60673 3.71999 5.1031C3.77037 4.60781 3.86555 4.31007 4.01913 4.08022L3.18766 3.52465ZM4.03814 2.67417C3.70156 2.89907 3.41256 3.18807 3.18766 3.52465L4.01913 4.08022C4.17107 3.85283 4.36632 3.65758 4.59371 3.50564L4.03814 2.67417ZM7.68767 2.15466C6.79129 2.15466 6.08137 2.15406 5.51538 2.21164C4.94103 2.27006 4.45969 2.39251 4.03814 2.67417L4.59371 3.50564C4.82356 3.35206 5.1213 3.25689 5.61658 3.2065C6.12022 3.15527 6.77048 3.15466 7.68767 3.15466V2.15466ZM8.97896 2.15466H7.68767V3.15466H8.97896V2.15466ZM12.6285 2.67417C12.2069 2.39251 11.7256 2.27006 11.1513 2.21164C10.5853 2.15406 9.87534 2.15466 8.97896 2.15466V3.15466C9.89615 3.15466 10.5464 3.15527 11.05 3.2065C11.5453 3.25689 11.8431 3.35206 12.0729 3.50564L12.6285 2.67417ZM13.479 3.52465C13.2541 3.18807 12.9651 2.89907 12.6285 2.67417L12.0729 3.50564C12.3003 3.65758 12.4956 3.85283 12.6475 4.08022L13.479 3.52465Z" fill="white"/>
	<circle cx="10.9159" cy="7.17409" r="0.645646" fill="white"/>
	<circle cx="8.33333" cy="7.17409" r="0.645646" fill="white"/>
	<circle cx="5.75075" cy="7.17409" r="0.645646" fill="white"/>
</svg>