<svg width="16" height="16" viewBox="0 0 16 16" fill="none" xmlns="http://www.w3.org/2000/svg">
	<path d="M2.30634 6.43434C2.30634 5.7732 2.84229 5.23725 3.50343 5.23725V5.23725C3.95685 5.23725 4.37136 4.98107 4.57414 4.57551L5.10413 3.51552C5.36793 2.98793 5.90717 2.65466 6.49704 2.65466H9.73726C10.3271 2.65466 10.8664 2.98793 11.1302 3.51552L11.6602 4.57551C11.8629 4.98106 12.2774 5.23725 12.7309 5.23725V5.23725C13.392 5.23725 13.928 5.7732 13.928 6.43434V9.66453C13.928 9.96212 13.928 10.1109 13.9174 10.2364C13.7948 11.6948 12.6377 12.8518 11.1794 12.9744C11.0539 12.985 10.9051 12.985 10.6075 12.985H5.6268C5.32921 12.985 5.18042 12.985 5.05494 12.9744C3.59657 12.8518 2.43953 11.6948 2.31689 10.2364C2.30634 10.1109 2.30634 9.96212 2.30634 9.66453V6.43434Z" stroke="white"/>
	<circle cx="8.11713" cy="8.46539" r="2.08258" stroke="white"/>
</svg>