<svg width="18" height="18" viewBox="0 0 18 18" fill="none" xmlns="http://www.w3.org/2000/svg">
	<path d="M6.67187 10.4101C6.57702 10.5119 6.4249 10.5353 6.30338 10.4683L0.785808 7.41435C0.702778 7.36829 0.622475 7.3489 0.547929 7.3489C0.399748 7.3489 0.274293 7.42526 0.191869 7.5192C0.0676266 7.66072 -0.0138886 7.91193 0.165202 8.15435L6.48187 16.7013C6.64732 16.925 6.90126 17.0447 7.17278 17.0289C7.44763 17.0131 7.68581 16.8656 7.8255 16.6234L16.954 0.822535C17.1213 0.533141 16.9858 0.286474 16.8194 0.163141C16.6534 0.0404137 16.3985 -0.00837423 16.1819 0.223444L6.67187 10.4101Z" fill="white"/>
</svg>