<svg width="45" height="45" viewBox="0 0 45 45" fill="none" xmlns="http://www.w3.org/2000/svg">
<path d="M27.8385 21.9523H17.1616C16.6276 21.9523 16.1948 21.5194 16.1948 20.9855C16.1948 20.4515 16.6276 20.0187 17.1616 20.0187H27.8385C28.3725 20.0187 28.8053 20.4515 28.8053 20.9855C28.8053 21.5194 28.3725 21.9523 27.8385 21.9523Z" fill="#00BDE0"/>
<path d="M27.8385 16.5914H17.1615C16.6276 16.5914 16.1947 16.1586 16.1947 15.6246C16.1947 15.0907 16.6276 14.6578 17.1615 14.6578H27.8385C28.3724 14.6578 28.8053 15.0907 28.8053 15.6246C28.8053 16.1586 28.3724 16.5914 27.8385 16.5914Z" fill="#00BDE0"/>
<path d="M44.8142 16.9058C44.8147 16.6047 44.6673 16.3109 44.4258 16.1311L36.4781 10.197V8.13336C36.4781 7.59943 36.0452 7.16657 35.5113 7.16657H32.4193L23.0784 0.192117C22.7354 -0.0639952 22.2647 -0.0640831 21.9216 0.192117L12.5806 7.16657H9.48864C8.9547 7.16657 8.52184 7.59943 8.52184 8.13336V10.197L0.574268 16.1311C0.332745 16.3109 0.185353 16.6047 0.18588 16.9058V44.0331C0.177267 44.5519 0.633594 45.0092 1.15267 44.9999H43.8474C44.3665 45.0092 44.8227 44.5519 44.8142 44.0331V16.9058ZM2.11947 18.8664L14.3258 28.2335L2.11947 41.5479V18.8664ZM15.8656 29.4152L20.1004 32.665C20.807 33.2072 21.6534 33.4781 22.5 33.4781C23.3465 33.4781 24.1932 33.2071 24.8996 32.665L29.1344 29.4152L41.6494 43.0663H3.35064L15.8656 29.4152ZM30.6743 28.2335L42.8806 18.8664V41.5479L30.6743 28.2335ZM42.2456 16.9163L36.4781 21.3422V12.6101L42.2456 16.9163ZM22.5 2.17334L29.1874 7.16657H15.8125L22.5 2.17334ZM34.5445 9.10016V22.8261L23.7224 31.131C23.0026 31.6833 21.9974 31.6833 21.2776 31.131L10.4554 22.8261V9.10016H34.5445ZM8.52184 21.3422L2.75448 16.9163L8.52193 12.6101L8.52184 21.3422Z" fill="#031B4E"/>
</svg>
