<svg width="45" height="45" viewBox="0 0 45 45" fill="none" xmlns="http://www.w3.org/2000/svg">
<path d="M28.1076 31.3514C26.6895 29.9335 24.3823 29.9335 22.9646 31.3514L20.7933 33.5226C20.3634 33.9526 19.664 33.9524 19.2343 33.5226L11.4814 25.7697C11.2747 25.5631 11.161 25.2863 11.161 24.9901C11.161 24.694 11.2748 24.4172 11.4814 24.2106L13.6526 22.0394C15.0705 20.6214 15.0705 18.3143 13.6526 16.8965L8.15383 11.3978C7.25653 10.5004 5.7964 10.5004 4.89893 11.3978L3.60093 12.6958C-1.20031 17.497 -1.20031 25.3093 3.60093 30.1106L14.8935 41.4032C17.2104 43.7201 20.3028 44.9961 23.6009 44.9961C26.8987 44.9961 29.9915 43.72 32.3083 41.4032L33.6063 40.1052C34.5036 39.2079 34.5037 37.7477 33.6063 36.8502L28.1076 31.3514ZM4.96791 14.0628L6.26592 12.7648C6.33648 12.6942 6.43147 12.6589 6.52638 12.6589C6.62128 12.6589 6.71628 12.6942 6.78684 12.7648L12.2855 18.2635C12.9497 18.9276 12.9497 20.0082 12.2855 20.6724L10.8006 22.1573L3.92396 15.2806C4.23547 14.8547 4.58337 14.4473 4.96791 14.0628ZM16.2605 40.036L4.96791 28.7435C1.79711 25.5726 1.11037 20.844 2.90759 16.9984L9.54401 23.6347C9.33715 24.0499 9.22775 24.5114 9.22775 24.9901C9.22775 25.8026 9.54269 26.5649 10.1144 27.1367L17.8674 34.8897C18.812 35.8344 20.2297 36.0249 21.3653 35.4615L28.0013 42.0975C26.6439 42.7297 25.1495 43.0628 23.6009 43.0628C20.8191 43.0628 18.2123 41.9879 16.2605 40.036ZM32.2393 38.738L30.9413 40.036C30.5582 40.4191 30.15 40.7683 29.7201 41.0823L22.8439 34.2061L24.3316 32.7185C24.9956 32.0543 26.0762 32.0543 26.7405 32.7185L32.2392 38.2171C32.3804 38.3583 32.3804 38.5969 32.2393 38.738Z" fill="#031B4E"/>
<path d="M37.4095 8.79147H34.202V5.58403C34.202 5.05019 33.7692 4.6174 33.2354 4.6174H29.281C28.7472 4.6174 28.3144 5.05019 28.3144 5.58403V8.79147H25.1069C24.5731 8.79147 24.1403 9.22426 24.1403 9.7581V13.7125C24.1403 14.2463 24.5731 14.6791 25.1069 14.6791H28.3144V17.8866C28.3144 18.4204 28.7472 18.8532 29.281 18.8532H33.2354C33.7692 18.8532 34.202 18.4204 34.202 17.8866V14.6791H37.4095C37.9433 14.6791 38.3761 14.2463 38.3761 13.7125V9.7581C38.3761 9.22417 37.9433 8.79147 37.4095 8.79147ZM36.4428 12.7459H33.2354C32.7016 12.7459 32.2688 13.1786 32.2688 13.7125V16.9199H30.2476V13.7125C30.2476 13.1786 29.8149 12.7459 29.281 12.7459H26.0736V10.7247H29.281C29.8149 10.7247 30.2476 10.2919 30.2476 9.7581V6.55065H32.2688V9.7581C32.2688 10.2919 32.7016 10.7247 33.2354 10.7247H36.4428V12.7459Z" fill="#031B4E"/>
<path d="M40.5184 0.00393677H21.998C19.5269 0.00393677 17.5165 2.01435 17.5165 4.48557V18.985C17.5165 21.4562 19.5269 23.4666 21.998 23.4666H28.1545V26.9648C28.1545 27.3572 28.3916 27.7106 28.7547 27.8594C28.8734 27.9079 28.9976 27.9315 29.1209 27.9315C29.3751 27.9315 29.6247 27.8312 29.81 27.6429L33.9198 23.4666H40.5184C42.9896 23.4666 45 21.4562 45 18.985V4.48557C45 2.01435 42.9896 0.00393677 40.5184 0.00393677ZM43.0667 18.985C43.0667 20.3902 41.9235 21.5334 40.5184 21.5334H33.5149C33.2558 21.5334 33.0076 21.6373 32.8259 21.822L30.0877 24.6045V22.5001C30.0877 21.9662 29.6549 21.5334 29.1211 21.5334H21.998C20.5929 21.5334 19.4497 20.3903 19.4497 18.9851V4.48566C19.4497 3.08045 20.5929 1.93728 21.998 1.93728H40.5184C41.9235 1.93728 43.0667 3.08045 43.0667 4.48566V18.985Z" fill="#00BDE0"/>
</svg>
