<svg width="39" height="45" viewBox="0 0 39 45" fill="none" xmlns="http://www.w3.org/2000/svg">
<path d="M19.5 12.015C12.3203 12.015 6.47919 17.8562 6.47919 25.0359C6.47919 32.2156 12.3203 38.0567 19.5 38.0567C26.6797 38.0567 32.5208 32.2156 32.5208 25.0359C32.5208 17.8562 26.6797 12.015 19.5 12.015ZM20.4668 36.0807V34.1557C20.4668 33.6218 20.0339 33.1889 19.5 33.1889C18.9661 33.1889 18.5333 33.6218 18.5333 34.1557V36.0807C13.1895 35.6168 8.91909 31.3466 8.45531 26.0027H10.3803C10.9142 26.0027 11.347 25.5699 11.347 25.036C11.347 24.502 10.9142 24.0692 10.3803 24.0692H8.45531C8.91918 18.7254 13.1895 14.455 18.5333 13.9913V15.9162C18.5333 16.4502 18.9661 16.883 19.5 16.883C20.0339 16.883 20.4668 16.4502 20.4668 15.9162V13.9913C25.8106 14.4551 30.0809 18.7254 30.5447 24.0692H28.6197C28.0858 24.0692 27.653 24.502 27.653 25.036C27.653 25.5699 28.0858 26.0027 28.6197 26.0027H30.5447C30.0808 31.3465 25.8105 35.6168 20.4668 36.0807Z" fill="#00BDE0"/>
<path d="M23.1624 29.665C22.9149 29.665 22.6676 29.5706 22.4788 29.3819L18.8164 25.7195C18.6352 25.5381 18.5333 25.2922 18.5333 25.0359V21.0305C18.5333 20.4966 18.9661 20.0638 19.5 20.0638C20.0339 20.0638 20.4668 20.4966 20.4668 21.0305V24.6355L23.846 28.0147C24.2236 28.3923 24.2236 29.0044 23.846 29.3819C23.6571 29.5706 23.4098 29.665 23.1624 29.665Z" fill="#031B4E"/>
<path d="M38.1934 25.036C38.1934 18.4911 34.8118 12.722 29.7047 9.38153L30.5772 7.90125L34.5682 10.2055C34.7164 10.2912 34.8834 10.3351 35.0516 10.3351C35.1354 10.3351 35.2195 10.3242 35.3018 10.3021C35.5495 10.2358 35.7607 10.0737 35.8889 9.85172C37.6991 6.71637 36.621 2.69292 33.4856 0.882636C31.9669 0.00579255 30.1976 -0.227107 28.5035 0.226651C26.8094 0.680585 25.3936 1.76704 24.5167 3.28589C24.2498 3.74835 24.4083 4.33948 24.8706 4.60648L28.9026 6.93441L28.0344 8.40739C25.7446 7.22743 23.1813 6.50641 20.4668 6.36746V3.72436H21.332C21.8659 3.72436 22.2988 3.29152 22.2988 2.75761C22.2988 2.2237 21.8659 1.79086 21.332 1.79086H17.6681C17.1342 1.79086 16.7014 2.2237 16.7014 2.75761C16.7014 3.29152 17.1342 3.72436 17.6681 3.72436H18.5333V6.36728C15.8231 6.50605 13.2637 7.22488 10.9766 8.4015L10.1281 6.91666L14.1295 4.60639C14.5919 4.33939 14.7504 3.74809 14.4834 3.2858C13.6065 1.76704 12.1906 0.680497 10.4966 0.226563C8.80246 -0.22737 7.03313 0.00570463 5.51437 0.882548C2.37902 2.69266 1.30091 6.71619 3.11111 9.85154C3.23925 10.0735 3.45044 10.2356 3.69811 10.302C3.78046 10.324 3.86456 10.3349 3.94832 10.3349C4.11653 10.3349 4.28352 10.291 4.43169 10.2054L8.45356 7.88341L9.3057 9.37467C4.19282 12.7141 0.806641 18.4866 0.806641 25.036C0.806641 31.6043 4.21242 37.3917 9.35026 40.7266L7.69808 43.5441C7.42801 44.0046 7.58243 44.5969 8.04295 44.8671C8.19658 44.9572 8.36497 45.0001 8.53107 45.0001C8.86284 45.0001 9.18591 44.8291 9.36591 44.5222L11.024 41.6947C13.5696 42.9951 16.4506 43.7294 19.5 43.7294C22.5634 43.7294 25.457 42.9886 28.0112 41.677L29.6282 44.5122C29.8065 44.8249 30.1329 45.0002 30.4688 45.0002C30.6312 45.0002 30.7958 44.9592 30.9469 44.873C31.4106 44.6085 31.5721 44.018 31.3076 43.5543L29.6825 40.7051C34.802 37.3666 38.1934 31.5903 38.1934 25.036ZM29.0038 2.09415C30.1988 1.77398 31.4472 1.93824 32.5188 2.55696C34.4438 3.66837 35.2697 5.96239 34.6098 7.99679L26.7614 3.46536C27.3545 2.80498 28.1262 2.32934 29.0038 2.09415ZM4.39004 7.99687C3.73027 5.96239 4.55605 3.66837 6.48103 2.55705C7.19485 2.14495 7.98688 1.93446 8.78963 1.93446C9.19198 1.93446 9.59705 1.98728 9.99605 2.09424C10.8736 2.32942 11.6454 2.80507 12.2385 3.46553L4.39004 7.99687ZM19.5 41.7958C10.2586 41.7958 2.74014 34.2774 2.74014 25.036C2.74014 15.7945 10.2586 8.27609 19.5 8.27609C28.7414 8.27609 36.2599 15.7945 36.2599 25.036C36.2599 34.2774 28.7414 41.7958 19.5 41.7958Z" fill="#031B4E"/>
</svg>
