<svg width="400" height="120" viewBox="0 0 400 120" fill="none" xmlns="http://www.w3.org/2000/svg">
<path d="M66.3259 47.4649L66.9819 47.9679C70.4669 50.6369 73.4049 53.9539 75.6359 57.7359C78.7369 62.9939 80.3719 68.9869 80.3719 75.0909V96.1079C80.3719 100.706 78.4819 105.101 75.1439 108.263C68.8629 114.214 59.0829 114.398 52.5809 108.69L52.3789 108.513C48.6949 105.278 46.5829 100.612 46.5829 95.7089V74.7679C46.5829 74.3099 46.2119 73.9379 45.7539 73.9379H24.0539C19.5309 73.9379 15.1929 72.1419 11.9949 68.9439C5.50894 62.4569 5.31495 52.0019 11.5569 45.2799L11.7379 45.0849C15.0169 41.5539 19.6189 39.5469 24.4379 39.5469H42.9669C51.4119 39.5469 59.6209 42.3299 66.3259 47.4649ZM66.3259 47.4649L63.3319 51.3729" stroke="white" stroke-width="10"/>
<path d="M74.073 9.30996L74.275 9.48696V9.48797C77.959 12.722 80.071 17.388 80.071 22.291V43.232C80.071 43.69 80.443 44.062 80.901 44.062H102.601C107.124 44.062 111.461 45.858 114.659 49.056C121.146 55.543 121.339 65.998 115.098 72.72L114.916 72.915C111.637 76.446 107.036 78.453 102.216 78.453H83.688C75.243 78.453 67.033 75.67 60.329 70.535L59.673 70.032C56.187 67.363 53.249 64.046 51.019 60.264C47.918 55.006 46.282 49.013 46.282 42.909V21.892C46.282 17.294 48.173 12.899 51.51 9.73696C57.791 3.78596 67.572 3.60096 74.073 9.30996ZM74.073 9.30996L70.774 13.067" stroke="#0CC0DF" stroke-width="10"/>
<path d="M175.701 75.4739C170.934 75.4739 166.512 74.7269 162.434 73.2339C158.413 71.6829 154.91 69.4999 151.923 66.6859C148.994 63.8719 146.696 60.5689 145.031 56.7779C143.365 52.9299 142.532 48.7089 142.532 44.1139C142.532 39.5189 143.365 35.3259 145.031 31.5349C146.696 27.6869 148.994 24.3559 151.923 21.5419C154.91 18.7269 158.413 16.5729 162.434 15.0799C166.512 13.5289 170.934 12.7539 175.701 12.7539C181.273 12.7539 186.241 13.7299 190.606 15.6829C195.028 17.6359 198.704 20.4499 201.634 24.1259L190.778 33.9479C188.825 31.6499 186.671 29.8979 184.317 28.6919C182.019 27.4859 179.435 26.8829 176.563 26.8829C174.093 26.8829 171.824 27.2849 169.757 28.0889C167.689 28.8929 165.908 30.0709 164.415 31.6209C162.979 33.1149 161.831 34.9239 160.969 37.0489C160.165 39.1739 159.763 41.5289 159.763 44.1139C159.763 46.6979 160.165 49.0529 160.969 51.1779C161.831 53.3039 162.979 55.1409 164.415 56.6919C165.908 58.1859 167.689 59.3339 169.757 60.1379C171.824 60.9419 174.093 61.3449 176.563 61.3449C179.435 61.3449 182.019 60.7409 184.317 59.5349C186.671 58.3289 188.825 56.5769 190.778 54.2799L201.634 64.1009C198.704 67.7199 195.028 70.5339 190.606 72.5439C186.241 74.4969 181.273 75.4739 175.701 75.4739Z" fill="white"/>
<path d="M208.464 74.2678V10.3418H224.833V74.2678H208.464Z" fill="white"/>
<path d="M235.471 74.268V27.572H251.84V74.268H235.471ZM243.656 22.403C240.669 22.403 238.257 21.57 236.419 19.905C234.581 18.239 233.662 16.171 233.662 13.702C233.662 11.232 234.581 9.164 236.419 7.498C238.257 5.833 240.669 5 243.656 5C246.642 5 249.055 5.804 250.893 7.412C252.73 8.963 253.649 10.973 253.649 13.443C253.649 16.028 252.73 18.182 250.893 19.905C249.112 21.57 246.7 22.403 243.656 22.403Z" fill="white"/>
<path d="M292.89 26.7969C296.509 26.7969 299.783 27.5439 302.712 29.0369C305.641 30.4729 307.939 32.7129 309.604 35.7569C311.327 38.8009 312.189 42.7349 312.189 47.5599V74.2679H295.82V50.2309C295.82 46.8989 295.13 44.4869 293.752 42.9939C292.431 41.4429 290.564 40.6679 288.152 40.6679C286.429 40.6679 284.849 41.0699 283.414 41.8739C281.978 42.6199 280.858 43.7979 280.054 45.4059C279.249 47.0139 278.847 49.1109 278.847 51.6949V74.2679H262.478V27.5719H278.072V40.8399L275.057 36.9629C276.837 33.5739 279.278 31.0469 282.38 29.3809C285.481 27.6579 288.985 26.7969 292.89 26.7969Z" fill="white"/>
<path d="M322.466 74.268V27.572H338.835V74.268H322.466ZM330.651 22.403C327.664 22.403 325.252 21.57 323.414 19.905C321.576 18.239 320.657 16.171 320.657 13.702C320.657 11.232 321.576 9.164 323.414 7.498C325.252 5.833 327.664 5 330.651 5C333.637 5 336.05 5.804 337.888 7.412C339.726 8.963 340.644 10.973 340.644 13.443C340.644 16.028 339.726 18.182 337.888 19.905C336.107 21.57 333.695 22.403 330.651 22.403Z" fill="white"/>
<path d="M373.338 75.0429C368.169 75.0429 363.545 74.0089 359.467 71.9409C355.447 69.8739 352.288 67.0309 349.99 63.4119C347.693 59.7359 346.544 55.5429 346.544 50.8339C346.544 46.1239 347.693 41.9599 349.99 38.3409C352.288 34.7229 355.447 31.9089 359.467 29.8979C363.545 27.8309 368.169 26.7969 373.338 26.7969C378.622 26.7969 383.188 27.9169 387.036 30.1569C390.884 32.3969 393.613 35.5559 395.221 39.6339L382.556 46.0949C381.465 43.9129 380.115 42.3329 378.507 41.3569C376.899 40.3229 375.147 39.8059 373.252 39.8059C371.356 39.8059 369.633 40.2369 368.082 41.0979C366.532 41.9599 365.297 43.2239 364.378 44.8889C363.516 46.4969 363.086 48.4789 363.086 50.8339C363.086 53.2459 363.516 55.2849 364.378 56.9509C365.297 58.6159 366.532 59.8799 368.082 60.7409C369.633 61.6029 371.356 62.0339 373.252 62.0339C375.147 62.0339 376.899 61.5459 378.507 60.5689C380.115 59.5349 381.465 57.9269 382.556 55.7449L395.221 62.2059C393.613 66.2839 390.884 69.4429 387.036 71.6829C383.188 73.9229 378.622 75.0429 373.338 75.0429Z" fill="white"/>
<path d="M145.332 114.473V76.2778H149.806L166.939 105.142H164.539L181.453 76.2778H185.928L185.982 114.473H180.744L180.69 84.5168H181.945L166.885 109.835H164.375L149.206 84.5168H150.57V114.473H145.332Z" fill="#0CC0DF"/>
<path d="M214.633 114.473V108.361L214.36 107.216V96.7943C214.36 94.5753 213.705 92.8652 212.395 91.6652C211.122 90.4282 209.194 89.8102 206.612 89.8102C204.902 89.8102 203.229 90.1012 201.592 90.6832C199.955 91.2282 198.573 91.9742 197.445 92.9202L195.262 88.9912C196.754 87.7912 198.536 86.8812 200.61 86.2632C202.719 85.6082 204.92 85.2812 207.212 85.2812C211.177 85.2812 214.232 86.2452 216.379 88.1732C218.525 90.1012 219.598 93.0472 219.598 97.0122V114.473H214.633ZM205.138 114.8C202.992 114.8 201.101 114.436 199.464 113.709C197.863 112.981 196.627 111.981 195.753 110.708C194.88 109.398 194.444 107.925 194.444 106.288C194.444 104.724 194.808 103.305 195.535 102.032C196.299 100.759 197.518 99.7402 199.191 98.9762C200.901 98.2132 203.192 97.8312 206.066 97.8312H215.233V101.596H206.284C203.665 101.596 201.901 102.032 200.992 102.905C200.082 103.778 199.628 104.833 199.628 106.07C199.628 107.488 200.191 108.634 201.319 109.507C202.447 110.344 204.011 110.762 206.012 110.762C207.976 110.762 209.685 110.326 211.141 109.453C212.632 108.58 213.705 107.307 214.36 105.633L215.397 109.234C214.705 110.944 213.487 112.308 211.741 113.327C209.995 114.309 207.794 114.8 205.138 114.8Z" fill="#0CC0DF"/>
<path d="M237.585 114.8C235.184 114.8 232.893 114.473 230.71 113.818C228.564 113.163 226.873 112.363 225.636 111.417L227.818 107.27C229.055 108.107 230.583 108.816 232.402 109.398C234.221 109.98 236.076 110.271 237.967 110.271C240.404 110.271 242.15 109.926 243.205 109.234C244.297 108.543 244.842 107.579 244.842 106.343C244.842 105.433 244.515 104.724 243.86 104.215C243.205 103.705 242.332 103.323 241.241 103.069C240.186 102.814 239.004 102.596 237.694 102.414C236.385 102.196 235.075 101.941 233.766 101.65C232.456 101.323 231.256 100.886 230.165 100.341C229.073 99.7592 228.2 98.9762 227.546 97.9942C226.891 96.9762 226.563 95.6302 226.563 93.9572C226.563 92.2112 227.054 90.6832 228.037 89.3732C229.019 88.0642 230.401 87.0632 232.183 86.3722C234.002 85.6452 236.148 85.2812 238.622 85.2812C240.514 85.2812 242.423 85.5172 244.351 85.9902C246.316 86.4272 247.916 87.0632 249.153 87.9002L246.916 92.0472C245.606 91.1742 244.242 90.5742 242.823 90.2462C241.405 89.9192 239.986 89.7552 238.567 89.7552C236.276 89.7552 234.566 90.1372 233.438 90.9012C232.311 91.6282 231.747 92.5743 231.747 93.7383C231.747 94.7203 232.074 95.4842 232.729 96.0302C233.42 96.5392 234.293 96.9392 235.348 97.2302C236.439 97.5212 237.64 97.7762 238.949 97.9942C240.259 98.1762 241.568 98.4312 242.878 98.7582C244.188 99.0492 245.37 99.4682 246.425 100.013C247.516 100.559 248.389 101.323 249.044 102.305C249.735 103.287 250.08 104.597 250.08 106.233C250.08 107.979 249.571 109.489 248.553 110.762C247.534 112.035 246.097 113.036 244.242 113.763C242.387 114.454 240.168 114.8 237.585 114.8Z" fill="#0CC0DF"/>
<path d="M266.558 114.8C263.647 114.8 261.392 114.018 259.792 112.454C258.191 110.89 257.391 108.652 257.391 105.742V79.2241H262.629V105.524C262.629 107.088 263.011 108.289 263.775 109.125C264.575 109.962 265.703 110.38 267.158 110.38C268.795 110.38 270.159 109.926 271.25 109.016L272.887 112.781C272.087 113.472 271.123 113.982 269.995 114.309C268.904 114.636 267.758 114.8 266.558 114.8ZM252.48 89.8641V85.5541H270.923V89.8641H252.48Z" fill="#0CC0DF"/>
<path d="M291.138 114.8C288.046 114.8 285.318 114.163 282.953 112.89C280.625 111.617 278.806 109.871 277.497 107.652C276.224 105.433 275.587 102.887 275.587 100.013C275.587 97.1392 276.205 94.5932 277.442 92.3742C278.715 90.1552 280.443 88.4272 282.626 87.1912C284.845 85.9172 287.336 85.2812 290.101 85.2812C292.902 85.2812 295.376 85.8992 297.522 87.1362C299.668 88.3732 301.341 90.1192 302.542 92.3742C303.778 94.5932 304.397 97.1942 304.397 100.177C304.397 100.395 304.379 100.65 304.342 100.941C304.342 101.232 304.324 101.505 304.288 101.759H279.679V97.9942H301.559L299.431 99.3042C299.468 97.4492 299.086 95.7942 298.286 94.3392C297.485 92.8832 296.376 91.7562 294.957 90.9562C293.575 90.1192 291.956 89.7012 290.101 89.7012C288.282 89.7012 286.663 90.1192 285.245 90.9562C283.826 91.7562 282.717 92.9022 281.916 94.3932C281.116 95.8482 280.716 97.5212 280.716 99.4132V100.286C280.716 102.214 281.153 103.942 282.026 105.47C282.935 106.961 284.19 108.125 285.79 108.962C287.391 109.798 289.228 110.217 291.301 110.217C293.011 110.217 294.557 109.926 295.939 109.344C297.358 108.762 298.595 107.889 299.65 106.725L302.542 110.107C301.232 111.635 299.595 112.799 297.631 113.6C295.703 114.4 293.539 114.8 291.138 114.8Z" fill="#0CC0DF"/>
<path d="M311.67 114.473V85.5542H316.69V93.4112L316.199 91.4473C317 89.4463 318.345 87.9183 320.237 86.8633C322.129 85.8083 324.457 85.2812 327.221 85.2812V90.3552C327.003 90.3192 326.785 90.3012 326.566 90.3012C326.385 90.3012 326.203 90.3012 326.021 90.3012C323.22 90.3012 321.001 91.1372 319.364 92.8112C317.727 94.4842 316.909 96.9032 316.909 100.068V114.473H311.67Z" fill="#0CC0DF"/>
</svg>
